{"asset":{"version":"2.0","generator":"Blockbench 4.12.4 glTF exporter"},"scenes":[{"nodes":[12],"name":"blockbench_export"}],"scene":0,"nodes":[{"name":"corpo","mesh":0},{"translation":[0,0,0.04],"name":"cabeça","mesh":1},{"translation":[0.08,0.24,0],"name":"corpo","children":[0,1]},{"rotation":[0,0,0.3420201433256687,0.9396926207859084],"translation":[-0.08,0.36,0],"name":"alsa1","mesh":2},{"translation":[-0.0350696,0.3763532,0],"name":"alsa2","mesh":3},{"rotation":[0,0,-0.3214394653031616,0.9469301294951057],"translation":[0.012314400000000001,0.3602684,0],"name":"alsa3","mesh":4},{"name":"alsa","children":[3,4,5]},{"rotation":[0.7071067811865475,0,0,0.7071067811865476],"translation":[0.16,0.24,0.12],"name":"p1","mesh":5},{"rotation":[-1,0,0,6.123233995736766e-17],"translation":[0.16,0.2,0],"name":"p4","mesh":6},{"rotation":[-0.7071067811865475,0,0,0.7071067811865476],"translation":[0.16,0.28,-0.08],"name":"p2","mesh":7},{"translation":[0.16,0.36,0.04],"name":"p3","mesh":8},{"name":"mesh","children":[7,8,9,10]},{"children":[2,6,11]}],"bufferViews":[{"buffer":0,"byteOffset":0,"byteLength":288,"target":34962,"byteStride":12},{"buffer":0,"byteOffset":288,"byteLength":288,"target":34962,"byteStride":12},{"buffer":0,"byteOffset":576,"byteLength":192,"target":34962,"byteStride":8},{"buffer":0,"byteOffset":768,"byteLength":72,"target":34963},{"buffer":0,"byteOffset":840,"byteLength":288,"target":34962,"byteStride":12},{"buffer":0,"byteOffset":1128,"byteLength":288,"target":34962,"byteStride":12},{"buffer":0,"byteOffset":1416,"byteLength":192,"target":34962,"byteStride":8},{"buffer":0,"byteOffset":1608,"byteLength":72,"target":34963},{"buffer":0,"byteOffset":1680,"byteLength":288,"target":34962,"byteStride":12},{"buffer":0,"byteOffset":1968,"byteLength":288,"target":34962,"byteStride":12},{"buffer":0,"byteOffset":2256,"byteLength":192,"target":34962,"byteStride":8},{"buffer":0,"byteOffset":2448,"byteLength":72,"target":34963},{"buffer":0,"byteOffset":2520,"byteLength":288,"target":34962,"byteStride":12},{"buffer":0,"byteOffset":2808,"byteLength":288,"target":34962,"byteStride":12},{"buffer":0,"byteOffset":3096,"byteLength":192,"target":34962,"byteStride":8},{"buffer":0,"byteOffset":3288,"byteLength":72,"target":34963},{"buffer":0,"byteOffset":3360,"byteLength":288,"target":34962,"byteStride":12},{"buffer":0,"byteOffset":3648,"byteLength":288,"target":34962,"byteStride":12},{"buffer":0,"byteOffset":3936,"byteLength":192,"target":34962,"byteStride":8},{"buffer":0,"byteOffset":4128,"byteLength":72,"target":34963},{"buffer":0,"byteOffset":4200,"byteLength":480,"target":34962,"byteStride":12},{"buffer":0,"byteOffset":4680,"byteLength":480,"target":34962,"byteStride":12},{"buffer":0,"byteOffset":5160,"byteLength":320,"target":34962,"byteStride":8},{"buffer":0,"byteOffset":5480,"byteLength":120,"target":34963},{"buffer":0,"byteOffset":5600,"byteLength":480,"target":34962,"byteStride":12},{"buffer":0,"byteOffset":6080,"byteLength":480,"target":34962,"byteStride":12},{"buffer":0,"byteOffset":6560,"byteLength":320,"target":34962,"byteStride":8},{"buffer":0,"byteOffset":6880,"byteLength":120,"target":34963},{"buffer":0,"byteOffset":7000,"byteLength":480,"target":34962,"byteStride":12},{"buffer":0,"byteOffset":7480,"byteLength":480,"target":34962,"byteStride":12},{"buffer":0,"byteOffset":7960,"byteLength":320,"target":34962,"byteStride":8},{"buffer":0,"byteOffset":8280,"byteLength":120,"target":34963},{"buffer":0,"byteOffset":8400,"byteLength":480,"target":34962,"byteStride":12},{"buffer":0,"byteOffset":8880,"byteLength":480,"target":34962,"byteStride":12},{"buffer":0,"byteOffset":9360,"byteLength":320,"target":34962,"byteStride":8},{"buffer":0,"byteOffset":9680,"byteLength":120,"target":34963},{"buffer":0,"byteOffset":9800,"byteLength":16},{"buffer":0,"byteOffset":9816,"byteLength":48}],"buffers":[{"byteLength":9864,"uri":"data:application/octet-stream;base64,"}],"accessors":[{"bufferView":0,"componentType":5126,"count":24,"max":[0,0.07999999821186066,0.07999999821186066],"min":[-0.20000000298023224,-0.03999999910593033,-0.03999999910593033],"type":"VEC3"},{"bufferView":1,"componentType":5126,"count":24,"max":[1,1,1],"min":[-1,-1,-1],"type":"VEC3"},{"bufferView":2,"componentType":5126,"count":24,"max":[0.625,0.5625],"min":[0,0],"type":"VEC2"},{"bufferView":3,"componentType":5123,"count":36,"max":[23],"min":[0],"type":"SCALAR"},{"bufferView":4,"componentType":5126,"count":24,"max":[0.03999599814414978,0.07999599725008011,0.03999599814414978],"min":[-0.03999599814414978,-0.03999599814414978,-0.07999599725008011],"type":"VEC3"},{"bufferView":5,"componentType":5126,"count":24,"max":[1,1,1],"min":[-1,-1,-1],"type":"VEC3"},{"bufferView":6,"componentType":5126,"count":24,"max":[0.875,0.75],"min":[0,0],"type":"VEC2"},{"bufferView":7,"componentType":5123,"count":36,"max":[23],"min":[0],"type":"SCALAR"},{"bufferView":8,"componentType":5126,"count":24,"max":[0.014248399995267391,0.009318400174379349,0.03996000066399574],"min":[-0.06567160040140152,-0.03060159832239151,0.000040000002627493814],"type":"VEC3"},{"bufferView":9,"componentType":5126,"count":24,"max":[1,1,1],"min":[-1,-1,-1],"type":"VEC3"},{"bufferView":10,"componentType":5126,"count":24,"max":[1,0.75],"min":[0,0],"type":"VEC2"},{"bufferView":11,"componentType":5123,"count":36,"max":[23],"min":[0],"type":"SCALAR"},{"bufferView":12,"componentType":5126,"count":24,"max":[0.04000040143728256,3.9999997625272954e-7,0.04000040143728256],"min":[-0.04000040143728256,-0.04000040143728256,-3.9999997625272954e-7],"type":"VEC3"},{"bufferView":13,"componentType":5126,"count":24,"max":[1,1,1],"min":[-1,-1,-1],"type":"VEC3"},{"bufferView":14,"componentType":5126,"count":24,"max":[1,0.75],"min":[0,0],"type":"VEC2"},{"bufferView":15,"componentType":5123,"count":36,"max":[23],"min":[0],"type":"SCALAR"},{"bufferView":16,"componentType":5126,"count":24,"max":[0.06435000151395798,0.0082656005397439,0.03999960049986839],"min":[-0.01564919948577881,-0.03173360228538513,3.9999997625272954e-7],"type":"VEC3"},{"bufferView":17,"componentType":5126,"count":24,"max":[1,1,1],"min":[-1,-1,-1],"type":"VEC3"},{"bufferView":18,"componentType":5126,"count":24,"max":[1,0.75],"min":[0,0],"type":"VEC2"},{"bufferView":19,"componentType":5123,"count":36,"max":[23],"min":[0],"type":"SCALAR"},{"bufferView":20,"componentType":5126,"count":40,"max":[0,0,0.03999999910593033],"min":[-0.03999999910593033,-0.03999999910593033,-0.07999999821186066],"type":"VEC3"},{"bufferView":21,"componentType":5126,"count":40,"max":[1,1,0.9191455245018005],"min":[-1,-1,-0.9191455245018005],"type":"VEC3"},{"bufferView":22,"componentType":5126,"count":40,"max":[0.625,0.875],"min":[0,0],"type":"VEC2"},{"bufferView":23,"componentType":5123,"count":60,"max":[39],"min":[0],"type":"SCALAR"},{"bufferView":24,"componentType":5126,"count":40,"max":[0,0.03999999910593033,0.03999999910593033],"min":[-0.03999999910593033,0,-0.07999999821186066],"type":"VEC3"},{"bufferView":25,"componentType":5126,"count":40,"max":[1,1,0.9191455245018005],"min":[-1,-1,-0.9191455245018005],"type":"VEC3"},{"bufferView":26,"componentType":5126,"count":40,"max":[0.625,0.875],"min":[0,0],"type":"VEC2"},{"bufferView":27,"componentType":5123,"count":60,"max":[39],"min":[0],"type":"SCALAR"},{"bufferView":28,"componentType":5126,"count":40,"max":[0,0,0.03999999910593033],"min":[-0.03999999910593033,-0.03999999910593033,-0.07999999821186066],"type":"VEC3"},{"bufferView":29,"componentType":5126,"count":40,"max":[1,1,0.9191455245018005],"min":[-1,-1,-0.9191455245018005],"type":"VEC3"},{"bufferView":30,"componentType":5126,"count":40,"max":[0.625,0.875],"min":[0,0],"type":"VEC2"},{"bufferView":31,"componentType":5123,"count":60,"max":[39],"min":[0],"type":"SCALAR"},{"bufferView":32,"componentType":5126,"count":40,"max":[0,0,0.03999999910593033],"min":[-0.03999999910593033,-0.03999999910593033,-0.07999999821186066],"type":"VEC3"},{"bufferView":33,"componentType":5126,"count":40,"max":[1,1,0.9191455245018005],"min":[-1,-1,-0.9191455245018005],"type":"VEC3"},{"bufferView":34,"componentType":5126,"count":40,"max":[0.625,0.875],"min":[0,0],"type":"VEC2"},{"bufferView":35,"componentType":5123,"count":60,"max":[39],"min":[0],"type":"SCALAR"},{"bufferView":36,"componentType":5126,"count":4,"max":[0.125],"min":[0],"type":"SCALAR"},{"bufferView":37,"componentType":5126,"count":4,"max":[0.03999999910593033,0.23999999463558197,0],"min":[0,0.23999999463558197,0],"type":"VEC3"}],"materials":[{"pbrMetallicRoughness":{"metallicFactor":0,"roughnessFactor":1,"baseColorTexture":{"index":0}},"alphaMode":"MASK","alphaCutoff":0.05,"doubleSided":true},{"pbrMetallicRoughness":{"metallicFactor":0,"roughnessFactor":1,"baseColorTexture":{"index":1}},"alphaMode":"MASK","alphaCutoff":0.05,"doubleSided":true},{"pbrMetallicRoughness":{"metallicFactor":0,"roughnessFactor":1,"baseColorTexture":{"index":2}},"alphaMode":"MASK","alphaCutoff":0.05,"doubleSided":true},{"pbrMetallicRoughness":{"metallicFactor":0,"roughnessFactor":1,"baseColorTexture":{"index":3}},"alphaMode":"MASK","alphaCutoff":0.05,"doubleSided":true},{"pbrMetallicRoughness":{"metallicFactor":0,"roughnessFactor":1,"baseColorTexture":{"index":4}},"alphaMode":"MASK","alphaCutoff":0.05,"doubleSided":true},{"pbrMetallicRoughness":{"metallicFactor":0,"roughnessFactor":1,"baseColorTexture":{"index":5}},"alphaMode":"MASK","alphaCutoff":0.05,"doubleSided":true}],"textures":[{"sampler":0,"source":0,"name":"corpo.png"},{"sampler":1,"source":1,"name":"cabeça.png"},{"sampler":2,"source":2,"name":"alsa1.png"},{"sampler":3,"source":3,"name":"alsa 2.png"},{"sampler":4,"source":4,"name":"alsa 3.png"},{"sampler":5,"source":5,"name":"p1.png"}],"samplers":[{"magFilter":9728,"minFilter":9728,"wrapS":33071,"wrapT":33071},{"magFilter":9728,"minFilter":9728,"wrapS":33071,"wrapT":33071},{"magFilter":9728,"minFilter":9728,"wrapS":33071,"wrapT":33071},{"magFilter":9728,"minFilter":9728,"wrapS":33071,"wrapT":33071},{"magFilter":9728,"minFilter":9728,"wrapS":33071,"wrapT":33071},{"magFilter":9728,"minFilter":9728,"wrapS":33071,"wrapT":33071}],"images":[{"mimeType":"image/png","uri":"data:image/png;base64,"},{"mimeType":"image/png","uri":"data:image/png;base64,"},{"mimeType":"image/png","uri":"data:image/png;base64,"},{"mimeType":"image/png","uri":"data:image/png;base64,"},{"mimeType":"image/png","uri":"data:image/png;base64,"},{"mimeType":"image/png","uri":"data:image/png;base64,"}],"meshes":[{"primitives":[{"mode":4,"attributes":{"POSITION":0,"NORMAL":1,"TEXCOORD_0":2},"indices":3,"material":0}]},{"primitives":[{"mode":4,"attributes":{"POSITION":4,"NORMAL":5,"TEXCOORD_0":6},"indices":7,"material":1}]},{"primitives":[{"mode":4,"attributes":{"POSITION":8,"NORMAL":9,"TEXCOORD_0":10},"indices":11,"material":2}]},{"primitives":[{"mode":4,"attributes":{"POSITION":12,"NORMAL":13,"TEXCOORD_0":14},"indices":15,"material":3}]},{"primitives":[{"mode":4,"attributes":{"POSITION":16,"NORMAL":17,"TEXCOORD_0":18},"indices":19,"material":4}]},{"primitives":[{"mode":4,"attributes":{"POSITION":20,"NORMAL":21,"TEXCOORD_0":22},"indices":23,"material":5}]},{"primitives":[{"mode":4,"attributes":{"POSITION":24,"NORMAL":25,"TEXCOORD_0":26},"indices":27,"material":5}]},{"primitives":[{"mode":4,"attributes":{"POSITION":28,"NORMAL":29,"TEXCOORD_0":30},"indices":31,"material":5}]},{"primitives":[{"mode":4,"attributes":{"POSITION":32,"NORMAL":33,"TEXCOORD_0":34},"indices":35,"material":5}]}],"animations":[{"name":"animation","samplers":[{"input":36,"output":37,"interpolation":"LINEAR"}],"channels":[{"sampler":0,"target":{"node":2,"path":"translation"}}]}]}